<?xml version="1.0" standalone="no"?>
<!DOCTYPE svg PUBLIC "-//W3C//DTD SVG 20010904//EN"
 "http://www.w3.org/TR/2001/REC-SVG-20010904/DTD/svg10.dtd">
<svg version="1.0" xmlns="http://www.w3.org/2000/svg"
 width="1034.000000pt" height="912.000000pt" viewBox="0 0 1034.000000 912.000000"
 preserveAspectRatio="xMidYMid meet">

<g transform="translate(0.000000,912.000000) scale(0.100000,-0.100000)"
fill="#fff" stroke="none">
<path d="M3408 8190 c-291 -34 -572 -161 -732 -331 -333 -352 -387 -886 -155
-1544 80 -228 175 -423 446 -910 275 -493 404 -759 539 -1102 85 -215 199
-561 269 -813 118 -426 135 -480 165 -539 83 -165 195 -201 372 -119 81 38
396 239 806 514 239 161 303 194 374 194 90 0 179 -54 219 -133 40 -78 37
-133 -19 -313 -75 -238 -84 -366 -34 -462 27 -53 92 -85 158 -79 68 7 172 55
247 116 100 79 283 274 420 446 717 899 1278 2253 1327 3199 33 644 -160 1181
-521 1454 -90 68 -262 146 -367 167 -31 6 -30 4 41 -67 56 -57 84 -97 120
-169 75 -149 91 -222 91 -424 0 -153 -3 -180 -27 -270 -31 -115 -108 -277
-175 -368 -51 -69 -140 -167 -153 -167 -4 0 -5 31 -2 69 12 143 -38 281 -140
383 -95 95 -202 138 -342 138 -45 0 -105 -7 -136 -16 -172 -51 -310 -209 -340
-392 -29 -177 53 -367 203 -468 31 -22 53 -42 50 -46 -10 -10 -139 -41 -432
-103 -146 -31 -314 -70 -375 -87 -373 -101 -579 -315 -601 -622 -16 -225 101
-440 288 -530 40 -19 89 -38 110 -41 l36 -7 -13 40 c-53 152 -9 329 111 449
169 169 441 173 613 8 103 -98 147 -211 138 -353 -14 -223 -193 -396 -472
-453 -85 -18 -123 -20 -250 -16 -167 6 -250 21 -405 74 -249 84 -463 235 -656
465 -385 459 -510 1038 -335 1551 59 173 164 343 277 446 217 198 478 289 999
346 351 38 464 54 580 80 317 72 553 255 640 498 26 72 39 147 26 147 -5 0
-35 -18 -67 -39 -77 -51 -208 -104 -314 -128 -67 -14 -126 -18 -280 -17 -285
0 -428 26 -1078 189 -533 135 -725 166 -1005 164 -95 -1 -202 -5 -239 -9z"/>
<path d="M3034 2031 c-97 -25 -205 -119 -252 -219 -26 -54 -27 -66 -32 -257
-3 -110 -3 -301 0 -425 l5 -226 32 -65 c39 -80 111 -150 191 -187 50 -24 69
-27 157 -27 88 0 106 4 156 28 88 42 143 98 186 185 l38 76 3 223 3 223 -193
-2 -193 -3 -3 -117 -3 -117 73 -3 73 -3 3 -68 c4 -82 -20 -133 -78 -166 -70
-39 -143 -18 -185 54 l-25 42 0 358 c0 344 1 359 21 391 29 48 72 75 118 76
90 1 151 -75 151 -189 l0 -63 121 0 122 0 -5 103 c-4 83 -10 114 -31 159 -36
79 -106 151 -185 190 -55 27 -77 32 -151 35 -47 1 -100 -1 -117 -6z"/>
<path d="M3913 2026 c-57 -19 -135 -70 -174 -114 -18 -20 -46 -66 -63 -102
l-31 -65 0 -415 0 -415 34 -70 c42 -85 106 -149 191 -189 58 -28 75 -31 160
-31 87 0 101 3 161 32 82 41 150 111 192 201 l32 67 3 344 c2 205 -1 377 -7
423 -19 142 -98 257 -216 313 -50 24 -75 29 -150 32 -57 2 -105 -2 -132 -11z
m187 -243 c40 -28 58 -55 69 -104 6 -27 10 -187 11 -365 0 -302 -1 -320 -21
-361 -54 -111 -178 -121 -253 -19 -20 26 -21 42 -24 389 -2 338 -1 364 16 397
39 73 142 105 202 63z"/>
<path d="M615 2008 c-3 -7 -30 -150 -60 -318 -30 -168 -84 -468 -120 -668 -36
-200 -65 -368 -65 -373 0 -6 46 -9 118 -7 l117 3 14 73 14 72 132 0 133 0 7
-42 c3 -24 9 -58 12 -75 l5 -33 120 0 120 0 -6 27 c-3 16 -26 147 -51 293
-130 755 -176 1017 -180 1038 -5 22 -8 22 -156 22 -110 0 -151 -3 -154 -12z
m179 -563 c9 -66 26 -189 39 -272 13 -84 21 -155 19 -158 -7 -7 -182 -6 -182
0 0 3 16 104 35 223 19 119 40 248 46 286 14 89 23 73 43 -79z"/>
<path d="M1286 1998 c-3 -13 -6 -323 -6 -690 l0 -668 120 0 120 0 0 58 c1 31
1 176 1 322 0 146 4 346 7 445 l7 180 54 -80 c30 -44 74 -108 99 -143 l44 -63
42 58 c23 32 66 95 96 140 30 45 58 82 63 83 4 0 7 -225 7 -500 l0 -500 120 0
120 0 0 690 0 690 -128 0 c-150 0 -130 13 -242 -153 -61 -89 -76 -105 -87 -94
-7 7 -49 65 -92 127 l-78 115 -130 3 c-128 3 -131 2 -137 -20z"/>
<path d="M2357 2013 c-4 -3 -7 -314 -7 -690 l0 -683 120 0 120 0 0 690 0 690
-113 0 c-63 0 -117 -3 -120 -7z"/>
<path d="M4866 2005 c-3 -9 -6 -320 -6 -691 l0 -674 200 0 c109 0 223 5 252
11 127 27 232 109 290 226 l33 67 5 207 c3 113 3 291 0 395 -5 179 -7 192 -32
247 -38 80 -115 158 -191 193 l-62 29 -241 3 c-217 3 -242 2 -248 -13z m464
-247 c69 -47 70 -55 70 -418 0 -318 -1 -326 -23 -365 -12 -22 -37 -49 -55 -62
-34 -23 -112 -37 -172 -31 l-35 3 -3 448 -2 447 93 0 c81 0 99 -3 127 -22z"/>
<path d="M5800 1330 l0 -690 330 0 330 0 0 120 0 120 -207 2 -208 3 -3 172 -2
173 207 2 208 3 0 115 0 115 -205 5 -205 5 -3 152 -3 153 208 2 208 3 0 115 0
115 -327 3 -328 2 0 -690z"/>
<path d="M6640 1993 c0 -15 0 -167 0 -338 0 -170 0 -469 0 -663 l0 -353 113 3
112 3 -4 350 c-2 193 0 347 5 342 4 -4 80 -161 168 -350 l161 -342 92 -3 91
-3 4 63 c1 35 2 345 0 691 l-2 627 -110 0 -110 0 0 -32 c0 -18 -1 -188 -1
-378 0 -313 -1 -342 -15 -315 -8 17 -81 185 -162 375 l-148 345 -97 3 -97 3 0
-28z"/>
<path d="M7484 2007 c-2 -7 -3 -60 -2 -118 l3 -104 130 -5 130 -5 2 -510 c2
-280 3 -536 3 -567 l0 -58 120 0 120 0 0 570 0 570 129 0 129 0 4 93 c2 50 2
104 0 120 l-4 27 -379 0 c-305 0 -381 -3 -385 -13z"/>
<path d="M8455 1998 c-6 -25 -47 -252 -71 -388 -26 -147 -164 -914 -170 -943
l-6 -27 120 0 120 0 6 27 c3 16 8 49 12 76 l6 47 134 0 133 0 7 -37 c3 -21 9
-54 13 -73 l7 -35 117 -3 117 -3 0 25 c0 13 -7 59 -15 102 -22 120 -215 1234
-215 1245 0 5 -66 9 -155 9 -152 0 -155 0 -160 -22z m165 -427 c0 -5 18 -131
40 -280 22 -149 40 -273 40 -276 0 -3 -40 -5 -90 -5 -65 0 -90 3 -90 13 -2 32
86 557 93 557 4 0 7 -4 7 -9z"/>
<path d="M9130 1330 l0 -690 330 0 330 0 0 120 0 120 -97 0 c-54 1 -147 2
-208 3 l-110 2 -3 568 -2 567 -120 0 -120 0 0 -690z"/>
</g>
</svg>
