<?xml version="1.0" encoding="UTF-8" standalone="no"?>
<!-- Created with Inkscape (http://www.inkscape.org/) -->

<svg
   width="119.85102mm"
   height="55.138302mm"
   viewBox="0 0 119.85102 55.138302"
   version="1.1"
   id="svg1"
   xmlns="http://www.w3.org/2000/svg"
   xmlns:svg="http://www.w3.org/2000/svg">
  <defs
     id="defs1" />
  <g
     id="layer1"
     transform="translate(-13.149479,-99.028745)">
    <path
       id="path3"
       style="display:inline;fill:#ffffff;stroke-width:0.140289"
       d="m 45.607513,99.02914 c -0.767057,0.0078 -1.572294,0.129047 -2.415526,0.386508 -0.675698,0.206305 -1.718165,0.687232 -2.48472,1.146352 -2.132779,1.27738 -2.451276,1.36862 -5.014298,1.4376 -3.206832,0.0863 -3.710175,-0.0385 -6.199631,-1.53807 -0.626806,-0.37757 -1.666538,-0.847359 -2.310507,-1.043959 -1.024526,-0.312781 -1.363346,-0.350391 -2.711175,-0.30169 -0.957613,0.03458 -1.805211,0.147289 -2.24049,0.297844 -3.09321,1.069915 -5.707088,3.787275 -7.901606,8.214425 -0.957954,1.93254 -1.192378,2.7888 -1.179593,4.30979 0.02328,2.76923 1.30221,5.5432 3.985127,8.64375 1.986562,2.2958 2.729628,4.3677 2.696408,7.51937 -0.0192,1.82182 -0.211459,3.08893 -1.04476,6.88689 -0.26192,1.19376 -0.310069,1.86068 -0.319717,4.42729 -0.0075,1.99004 0.0537,3.38171 0.179414,4.07591 0.458851,2.53369 1.754346,5.68338 3.137559,7.62889 0.883024,1.24199 1.905767,2.35095 2.326917,2.52275 0.198346,0.0809 0.58129,0.23052 0.850847,0.33243 0.269558,0.1019 0.904101,0.18821 1.410153,0.1916 0.734064,0.005 1.07381,-0.0721 1.680361,-0.38047 1.143475,-0.58132 1.249881,-0.88455 1.250161,-3.56149 5.3e-4,-6.96963 1.568589,-13.77806 3.679082,-15.97644 1.335206,-1.39082 3.251231,-1.32531 4.525833,0.15455 0.803475,0.93287 1.280297,1.87136 1.86771,3.67705 1.01663,3.12507 1.53367,6.67404 1.669972,11.46132 0.104474,3.66928 0.125623,3.73545 1.377335,4.31062 0.676343,0.31079 0.907562,0.34637 1.84364,0.28494 0.663641,-0.0436 1.318434,-0.18394 1.723579,-0.36976 1.5781,-0.72382 3.999093,-4.36266 5.007185,-7.52595 0.799516,-2.50879 0.899491,-3.25276 0.897893,-6.68541 -0.0011,-2.74404 -0.04245,-3.34826 -0.311511,-4.56783 -0.828476,-3.75507 -1.027453,-5.06302 -1.046675,-6.88689 -0.03324,-3.15167 0.709845,-5.22357 2.696409,-7.51937 2.682918,-3.10055 3.961841,-5.87452 3.985123,-8.64375 0.01281,-1.52099 -0.221639,-2.37725 -1.179589,-4.30979 -1.563058,-3.15326 -5.061502,-8.653182 -10.43091,-8.59901 z m 0.366759,3.03223 c 1.185836,0.0558 1.439261,0.11697 2.22326,0.53639 1.793842,0.95965 3.81223,3.42383 5.353436,6.53579 0.843644,1.70348 0.990447,2.68146 0.620015,4.13274 -0.420245,1.64644 -1.690539,3.80165 -3.235195,5.48937 -1.470106,1.60626 -2.341192,3.25446 -2.937635,5.55854 -0.675994,2.61139 -0.587721,5.36475 0.299206,9.33853 0.593383,2.65859 0.748549,3.90228 0.74911,6.00353 0.0011,2.97444 -0.480024,5.17704 -1.680912,7.69999 -0.791598,1.66305 -2.002076,3.37133 -2.626394,3.7067 -0.67075,0.36029 -0.684129,0.31961 -0.778103,-2.33636 -0.179145,-5.06343 -0.869477,-9.09766 -2.138199,-12.49758 -1.588684,-4.25735 -4.33408,-6.37438 -7.569032,-5.83635 -2.675678,0.44501 -4.653821,2.63647 -5.987672,6.63324 -1.096319,3.28502 -1.6997,7.07936 -1.860603,11.70069 -0.09235,2.6524 -0.09225,2.65248 -0.770989,2.37945 -0.444172,-0.17867 -1.768629,-2.0233 -2.477882,-3.45113 -1.33598,-2.68949 -1.838523,-4.92834 -1.831339,-8.15897 0.0044,-2.01071 0.144033,-3.04492 0.886404,-6.57203 0.530348,-2.51975 0.737131,-5.03479 0.537694,-6.53826 -0.464459,-3.5014 -1.347132,-5.38482 -3.913743,-8.35113 -0.966763,-1.11732 -1.981484,-2.8088 -2.434672,-4.05862 -0.252257,-0.69569 -0.331205,-1.20235 -0.331205,-2.12443 0,-1.19249 0.01216,-1.2351 0.799432,-2.81097 0.439664,-0.88008 1.124238,-2.09366 1.521192,-2.69678 0.961075,-1.46024 2.654772,-3.14192 3.782192,-3.75529 0.878323,-0.47786 0.935386,-0.48892 2.509061,-0.48808 1.437526,5.3e-4 1.693005,0.0398 2.380521,0.36345 0.42359,0.19939 1.179755,0.71072 1.680367,1.13647 1.738917,1.47888 4.837624,3.46976 6.319152,4.05999 0.951632,0.37913 2.679838,0.51458 3.425005,0.26847 0.567837,-0.18754 1.600847,-0.81167 1.595035,-0.9638 -0.0048,-0.13123 -2.454901,-1.20878 -3.5675,-1.5691 -0.539114,-0.17459 -1.106237,-0.36658 -1.260275,-0.42686 -0.15987,-0.0626 0.446062,-0.11371 1.412069,-0.11913 2.247876,-0.0126 3.136326,-0.28758 5.330186,-1.64871 1.585938,-0.98396 2.390768,-1.21451 3.978013,-1.13976 z m -18.692159,8.27701 c -1.846789,-0.0277 -3.145498,0.26093 -5.734964,1.19082 -1.3952,0.50102 -2.615453,0.93836 -2.711724,0.97176 -0.09627,0.0334 -0.175038,0.24757 -0.175038,0.476 0,0.22844 -0.07165,0.72678 -0.159175,1.10737 -0.09104,0.39588 -0.116847,0.97417 -0.06044,1.35168 0.177714,1.18948 1.40076,2.18431 2.694221,2.19114 0.535764,0.003 0.596976,0.0414 0.736801,0.46667 0.08386,0.25505 0.371458,0.81533 0.639163,1.24489 0.403302,0.64716 0.639495,0.85645 1.377877,1.2213 0.490122,0.24218 1.262979,0.53064 1.717287,0.64098 1.568139,0.38084 3.324988,0.20178 4.808357,-0.49 1.563587,-0.72919 2.469943,-2.01814 3.171198,-4.50991 0.374576,-1.33099 0.377058,-1.36672 0.135107,-1.87847 -0.444755,-0.94073 0.07864,-1.4711 1.45145,-1.4711 1.452255,0 2.038033,0.5409 1.595311,1.47274 -0.218744,0.46041 -0.214785,0.54697 0.07466,1.6498 0.387659,1.47702 1.152086,3.05289 1.825868,3.7638 1.133223,1.19568 3.676859,1.90976 5.614626,1.57624 2.203984,-0.37934 3.329534,-1.12285 4.081941,-2.69624 0.450957,-0.94299 0.494483,-0.98772 0.96244,-0.9907 1.177166,-0.007 2.436367,-1.04783 2.583181,-2.13431 0.04483,-0.3318 0.03318,-1.13222 -0.02572,-1.77855 l -0.106935,-1.17517 -1.960429,-0.70275 c -3.929522,-1.40898 -3.950216,-1.41371 -6.441403,-1.42991 -2.595889,-0.0169 -3.876428,0.21496 -5.111114,0.92509 l -0.770169,0.44279 -2.311597,-0.008 -2.311327,-0.008 -0.699334,-0.4329 c -0.903973,-0.55982 -2.1431,-0.85179 -4.059792,-0.9564 -0.291563,-0.0159 -0.566508,-0.0262 -0.830334,-0.0302 z m 15.303259,1.12796 c 0.329654,-5.3e-4 0.6855,0.006 1.070465,0.0181 2.198861,0.0715 3.250612,0.28764 3.871903,0.79526 l 0.329013,0.26874 -0.36922,0.39749 c -1.155124,1.24407 -1.080055,2.98371 0.174494,4.04325 l 0.447988,0.37828 -0.244783,0.51772 c -0.480135,1.01562 -1.214765,1.82512 -1.957143,2.15655 -0.595972,0.26606 -0.996973,0.3234 -2.462295,0.35274 -2.388465,0.0478 -3.14381,-0.17508 -4.171379,-1.23118 -1.485137,-1.52636 -1.901714,-5.01834 -0.766612,-6.42599 0.745775,-0.92484 1.769989,-1.26697 4.077569,-1.27097 z m -15.10306,0.05 c 2.559841,0 2.600059,0.005 3.396833,0.39749 0.443485,0.21858 0.966134,0.60737 1.161268,0.86416 0.795129,1.04632 0.780405,3.55183 -0.03064,5.2143 -0.447645,0.91761 -1.518247,1.94861 -2.263187,2.17961 -0.685414,0.21254 -3.887558,0.29665 -4.504768,0.11831 -1.197872,-0.3461 -1.910961,-0.98779 -2.538878,-2.28501 l -0.309324,-0.63934 0.520193,-0.57784 c 0.628002,-0.69769 0.787671,-1.0861 0.787671,-1.9147 0,-0.69274 -0.267927,-1.33205 -0.795605,-1.89878 l -0.343512,-0.36894 0.381528,-0.30114 c 0.786359,-0.62084 1.74973,-0.78812 4.538413,-0.78812 z m 14.80604,2.33608 c -1.010803,0.0962 -1.781813,0.97212 -1.782654,2.24356 -2.81e-4,0.43161 0.04139,0.8269 0.09272,0.87843 0.157647,0.15824 0.704293,0.10384 0.860967,-0.0856 0.08152,-0.0986 0.167814,-0.4934 0.191995,-0.87734 0.03774,-0.59917 0.09759,-0.72373 0.422278,-0.87925 0.756498,-0.36236 1.372137,0.12558 1.372137,1.08761 0,0.61026 0.136848,0.84823 0.48792,0.84823 0.502554,0 0.674348,-0.33302 0.604974,-1.1727 -0.07407,-0.8965 -0.508778,-1.58381 -1.179321,-1.86502 -0.370553,-0.1554 -0.734079,-0.20995 -1.071015,-0.17788 z m -14.527073,0.007 c -0.634765,0.0413 -1.237046,0.35419 -1.555379,0.87815 -0.261052,0.42968 -0.382679,2.0239 -0.170661,2.2367 0.05134,0.0515 0.242036,0.0936 0.423648,0.0936 0.379048,0 0.603333,-0.44446 0.603333,-1.19576 0,-0.33132 0.09407,-0.54101 0.311241,-0.69369 0.667892,-0.46954 1.33319,-0.0687 1.386628,0.83534 0.04483,0.75812 0.210541,1.05411 0.589663,1.05411 0.464136,0 0.65311,-0.26398 0.65311,-0.91192 0,-0.79607 -0.51542,-1.74768 -1.118061,-2.06431 -0.350029,-0.18391 -0.742663,-0.25699 -1.123522,-0.23223 z m 1.728502,9.41045 c -0.126533,0.01 -0.227969,0.0728 -0.321635,0.18612 -0.270537,0.32718 -0.116705,0.66373 0.529492,1.15843 0.607372,0.46497 1.940826,0.94907 3.198275,1.1609 2.516512,0.42394 5.916774,-0.0944 7.417244,-1.13043 0.66109,-0.45648 0.81235,-0.73608 0.606615,-1.12192 -0.200623,-0.37626 -0.522073,-0.3357 -1.24742,0.15757 -1.144406,0.77826 -2.332068,1.04698 -4.628391,1.04698 -2.296322,0 -3.483984,-0.26872 -4.628391,-1.04698 -0.433709,-0.29495 -0.714904,-0.42693 -0.925789,-0.41067 z" />
    <text
       xml:space="preserve"
       style="font-size:16.9333px;fill:#ffffff;stroke-width:0.264583"
       x="71.055054"
       y="121.8213"
       id="text1"><tspan
         id="tspan1"
         style="font-style:normal;font-variant:normal;font-weight:bold;font-stretch:normal;font-size:16.9333px;font-family:Roboto;-inkscape-font-specification:'Roboto Bold';stroke-width:0.264583"
         x="71.055054"
         y="121.8213">AMIGO</tspan><tspan
         style="font-style:normal;font-variant:normal;font-weight:bold;font-stretch:normal;font-size:16.9333px;font-family:Roboto;-inkscape-font-specification:'Roboto Bold';stroke-width:0.264583"
         x="71.055054"
         y="143.57837"
         id="tspan3">DENTAL</tspan></text>
    <path
       style="fill:#ffffff;stroke-width:0.402102"
       d="M 63.035584,146.57789 V 106.408 h 2.260265 v 40.37978 z"
       id="path4" />
    <g
       id="g6">
      <path
         id="path5"
         style="display:inline;fill:#ffffff;stroke-width:0.140289"
         d="m 45.607513,99.02914 c -0.767057,0.0078 -1.572294,0.129047 -2.415526,0.386508 -0.675698,0.206305 -1.718165,0.687232 -2.48472,1.146352 -2.132779,1.27738 -2.451276,1.36862 -5.014298,1.4376 -3.206832,0.0863 -3.710175,-0.0385 -6.199631,-1.53807 -0.626806,-0.37757 -1.666538,-0.847359 -2.310507,-1.043959 -1.024526,-0.312781 -1.363346,-0.350391 -2.711175,-0.30169 -0.957613,0.03458 -1.805211,0.147289 -2.24049,0.297844 -3.09321,1.069915 -5.707088,3.787275 -7.901606,8.214425 -0.957954,1.93254 -1.192378,2.7888 -1.179593,4.30979 0.02328,2.76923 1.30221,5.5432 3.985127,8.64375 1.986562,2.2958 2.729628,4.3677 2.696408,7.51937 -0.0192,1.82182 -0.211459,3.08893 -1.04476,6.88689 -0.26192,1.19376 -0.310069,1.86068 -0.319717,4.42729 -0.0075,1.99004 0.0537,3.38171 0.179414,4.07591 0.458851,2.53369 1.754346,5.68338 3.137559,7.62889 0.883024,1.24199 1.905767,2.35095 2.326917,2.52275 0.198346,0.0809 0.58129,0.23052 0.850847,0.33243 0.269558,0.1019 0.904101,0.18821 1.410153,0.1916 0.734064,0.005 1.07381,-0.0721 1.680361,-0.38047 1.143475,-0.58132 1.249881,-0.88455 1.250161,-3.56149 5.3e-4,-6.96963 1.568589,-13.77806 3.679082,-15.97644 1.335206,-1.39082 3.251231,-1.32531 4.525833,0.15455 0.803475,0.93287 1.280297,1.87136 1.86771,3.67705 1.01663,3.12507 1.53367,6.67404 1.669972,11.46132 0.104474,3.66928 0.125623,3.73545 1.377335,4.31062 0.676343,0.31079 0.907562,0.34637 1.84364,0.28494 0.663641,-0.0436 1.318434,-0.18394 1.723579,-0.36976 1.5781,-0.72382 3.999093,-4.36266 5.007185,-7.52595 0.799516,-2.50879 0.899491,-3.25276 0.897893,-6.68541 -0.0011,-2.74404 -0.04245,-3.34826 -0.311511,-4.56783 -0.828476,-3.75507 -1.027453,-5.06302 -1.046675,-6.88689 -0.03324,-3.15167 0.709845,-5.22357 2.696409,-7.51937 2.682918,-3.10055 3.961841,-5.87452 3.985123,-8.64375 0.01281,-1.52099 -0.221639,-2.37725 -1.179589,-4.30979 -1.563058,-3.15326 -5.061502,-8.653182 -10.43091,-8.59901 z m 0.366759,3.03223 c 1.185836,0.0558 1.439261,0.11697 2.22326,0.53639 1.793842,0.95965 3.81223,3.42383 5.353436,6.53579 0.843644,1.70348 0.990447,2.68146 0.620015,4.13274 -0.420245,1.64644 -1.690539,3.80165 -3.235195,5.48937 -1.470106,1.60626 -2.341192,3.25446 -2.937635,5.55854 -0.675994,2.61139 -0.587721,5.36475 0.299206,9.33853 0.593383,2.65859 0.748549,3.90228 0.74911,6.00353 0.0011,2.97444 -0.480024,5.17704 -1.680912,7.69999 -0.791598,1.66305 -2.002076,3.37133 -2.626394,3.7067 -0.67075,0.36029 -0.684129,0.31961 -0.778103,-2.33636 -0.179145,-5.06343 -0.869477,-9.09766 -2.138199,-12.49758 -1.588684,-4.25735 -4.33408,-6.37438 -7.569032,-5.83635 -2.675678,0.44501 -4.653821,2.63647 -5.987672,6.63324 -1.096319,3.28502 -1.6997,7.07936 -1.860603,11.70069 -0.09235,2.6524 -0.09225,2.65248 -0.770989,2.37945 -0.444172,-0.17867 -1.768629,-2.0233 -2.477882,-3.45113 -1.33598,-2.68949 -1.838523,-4.92834 -1.831339,-8.15897 0.0044,-2.01071 0.144033,-3.04492 0.886404,-6.57203 0.530348,-2.51975 0.737131,-5.03479 0.537694,-6.53826 -0.464459,-3.5014 -1.347132,-5.38482 -3.913743,-8.35113 -0.966763,-1.11732 -1.981484,-2.8088 -2.434672,-4.05862 -0.252257,-0.69569 -0.331205,-1.20235 -0.331205,-2.12443 0,-1.19249 0.01216,-1.2351 0.799432,-2.81097 0.439664,-0.88008 1.124238,-2.09366 1.521192,-2.69678 0.961075,-1.46024 2.654772,-3.14192 3.782192,-3.75529 0.878323,-0.47786 0.935386,-0.48892 2.509061,-0.48808 1.437526,5.3e-4 1.693005,0.0398 2.380521,0.36345 0.42359,0.19939 1.179755,0.71072 1.680367,1.13647 1.738917,1.47888 4.837624,3.46976 6.319152,4.05999 0.951632,0.37913 2.679838,0.51458 3.425005,0.26847 0.567837,-0.18754 1.600847,-0.81167 1.595035,-0.9638 -0.0048,-0.13123 -2.454901,-1.20878 -3.5675,-1.5691 -0.539114,-0.17459 -1.106237,-0.36658 -1.260275,-0.42686 -0.15987,-0.0626 0.446062,-0.11371 1.412069,-0.11913 2.247876,-0.0126 3.136326,-0.28758 5.330186,-1.64871 1.585938,-0.98396 2.390768,-1.21451 3.978013,-1.13976 z m -18.692159,8.27701 c -1.846789,-0.0277 -3.145498,0.26093 -5.734964,1.19082 -1.3952,0.50102 -2.615453,0.93836 -2.711724,0.97176 -0.09627,0.0334 -0.175038,0.24757 -0.175038,0.476 0,0.22844 -0.07165,0.72678 -0.159175,1.10737 -0.09104,0.39588 -0.116847,0.97417 -0.06044,1.35168 0.177714,1.18948 1.40076,2.18431 2.694221,2.19114 0.535764,0.003 0.596976,0.0414 0.736801,0.46667 0.08386,0.25505 0.371458,0.81533 0.639163,1.24489 0.403302,0.64716 0.639495,0.85645 1.377877,1.2213 0.490122,0.24218 1.262979,0.53064 1.717287,0.64098 1.568139,0.38084 3.324988,0.20178 4.808357,-0.49 1.563587,-0.72919 2.469943,-2.01814 3.171198,-4.50991 0.374576,-1.33099 0.377058,-1.36672 0.135107,-1.87847 -0.444755,-0.94073 0.07864,-1.4711 1.45145,-1.4711 1.452255,0 2.038033,0.5409 1.595311,1.47274 -0.218744,0.46041 -0.214785,0.54697 0.07466,1.6498 0.387659,1.47702 1.152086,3.05289 1.825868,3.7638 1.133223,1.19568 3.676859,1.90976 5.614626,1.57624 2.203984,-0.37934 3.329534,-1.12285 4.081941,-2.69624 0.450957,-0.94299 0.494483,-0.98772 0.96244,-0.9907 1.177166,-0.007 2.436367,-1.04783 2.583181,-2.13431 0.04483,-0.3318 0.03318,-1.13222 -0.02572,-1.77855 l -0.106935,-1.17517 -1.960429,-0.70275 c -3.929522,-1.40898 -3.950216,-1.41371 -6.441403,-1.42991 -2.595889,-0.0169 -3.876428,0.21496 -5.111114,0.92509 l -0.770169,0.44279 -2.311597,-0.008 -2.311327,-0.008 -0.699334,-0.4329 c -0.903973,-0.55982 -2.1431,-0.85179 -4.059792,-0.9564 -0.291563,-0.0159 -0.566508,-0.0262 -0.830334,-0.0302 z m 15.303259,1.12796 c 0.329654,-5.3e-4 0.6855,0.006 1.070465,0.0181 2.198861,0.0715 3.250612,0.28764 3.871903,0.79526 l 0.329013,0.26874 -0.36922,0.39749 c -1.155124,1.24407 -1.080055,2.98371 0.174494,4.04325 l 0.447988,0.37828 -0.244783,0.51772 c -0.480135,1.01562 -1.214765,1.82512 -1.957143,2.15655 -0.595972,0.26606 -0.996973,0.3234 -2.462295,0.35274 -2.388465,0.0478 -3.14381,-0.17508 -4.171379,-1.23118 -1.485137,-1.52636 -1.901714,-5.01834 -0.766612,-6.42599 0.745775,-0.92484 1.769989,-1.26697 4.077569,-1.27097 z m -15.10306,0.05 c 2.559841,0 2.600059,0.005 3.396833,0.39749 0.443485,0.21858 0.966134,0.60737 1.161268,0.86416 0.795129,1.04632 0.780405,3.55183 -0.03064,5.2143 -0.447645,0.91761 -1.518247,1.94861 -2.263187,2.17961 -0.685414,0.21254 -3.887558,0.29665 -4.504768,0.11831 -1.197872,-0.3461 -1.910961,-0.98779 -2.538878,-2.28501 l -0.309324,-0.63934 0.520193,-0.57784 c 0.628002,-0.69769 0.787671,-1.0861 0.787671,-1.9147 0,-0.69274 -0.267927,-1.33205 -0.795605,-1.89878 l -0.343512,-0.36894 0.381528,-0.30114 c 0.786359,-0.62084 1.74973,-0.78812 4.538413,-0.78812 z m 14.80604,2.33608 c -1.010803,0.0962 -1.781813,0.97212 -1.782654,2.24356 -2.81e-4,0.43161 0.04139,0.8269 0.09272,0.87843 0.157647,0.15824 0.704293,0.10384 0.860967,-0.0856 0.08152,-0.0986 0.167814,-0.4934 0.191995,-0.87734 0.03774,-0.59917 0.09759,-0.72373 0.422278,-0.87925 0.756498,-0.36236 1.372137,0.12558 1.372137,1.08761 0,0.61026 0.136848,0.84823 0.48792,0.84823 0.502554,0 0.674348,-0.33302 0.604974,-1.1727 -0.07407,-0.8965 -0.508778,-1.58381 -1.179321,-1.86502 -0.370553,-0.1554 -0.734079,-0.20995 -1.071015,-0.17788 z m -14.527073,0.007 c -0.634765,0.0413 -1.237046,0.35419 -1.555379,0.87815 -0.261052,0.42968 -0.382679,2.0239 -0.170661,2.2367 0.05134,0.0515 0.242036,0.0936 0.423648,0.0936 0.379048,0 0.603333,-0.44446 0.603333,-1.19576 0,-0.33132 0.09407,-0.54101 0.311241,-0.69369 0.667892,-0.46954 1.33319,-0.0687 1.386628,0.83534 0.04483,0.75812 0.210541,1.05411 0.589663,1.05411 0.464136,0 0.65311,-0.26398 0.65311,-0.91192 0,-0.79607 -0.51542,-1.74768 -1.118061,-2.06431 -0.350029,-0.18391 -0.742663,-0.25699 -1.123522,-0.23223 z m 1.728502,9.41045 c -0.126533,0.01 -0.227969,0.0728 -0.321635,0.18612 -0.270537,0.32718 -0.116705,0.66373 0.529492,1.15843 0.607372,0.46497 1.940826,0.94907 3.198275,1.1609 2.516512,0.42394 5.916774,-0.0944 7.417244,-1.13043 0.66109,-0.45648 0.81235,-0.73608 0.606615,-1.12192 -0.200623,-0.37626 -0.522073,-0.3357 -1.24742,0.15757 -1.144406,0.77826 -2.332068,1.04698 -4.628391,1.04698 -2.296322,0 -3.483984,-0.26872 -4.628391,-1.04698 -0.433709,-0.29495 -0.714904,-0.42693 -0.925789,-0.41067 z" />
      <text
         xml:space="preserve"
         style="font-size:16.9333px;fill:#ffffff;stroke-width:0.264583"
         x="71.055054"
         y="121.8213"
         id="text6"><tspan
           id="tspan5"
           style="font-style:normal;font-variant:normal;font-weight:bold;font-stretch:normal;font-size:16.9333px;font-family:Roboto;-inkscape-font-specification:'Roboto Bold';stroke-width:0.264583"
           x="71.055054"
           y="121.8213">AMIGO</tspan><tspan
           style="font-style:normal;font-variant:normal;font-weight:bold;font-stretch:normal;font-size:16.9333px;font-family:Roboto;-inkscape-font-specification:'Roboto Bold';stroke-width:0.264583"
           x="71.055054"
           y="143.57837"
           id="tspan6">DENTAL</tspan></text>
      <path
         style="fill:#ffffff;stroke-width:0.402102"
         d="M 63.035584,146.57789 V 106.408 h 2.260265 v 40.37978 z"
         id="path6" />
    </g>
  </g>
</svg>
