<?xml version="1.0" encoding="UTF-8" standalone="no"?>
<!-- Created with Inkscape (http://www.inkscape.org/) -->

<svg
   version="1.1"
   id="svg1"
   width="350"
   height="675.78394"
   viewBox="0 0 350 675.78394"
   xmlns="http://www.w3.org/2000/svg"
   xmlns:svg="http://www.w3.org/2000/svg">
  <defs
     id="defs1" />
  <path
     style="display:inline;fill:#000000"
     d="m 30.0416,674.81861 c -1.87027,-1.18303 -2.43941,-18.97697 -1.32887,-41.54687 l 0.78727,-16 12,-0.28692 c 9.20827,-0.22017 12.99274,0.0914 16.2672,1.33928 8.84245,3.36978 11.78458,11.78412 10.99589,31.44764 -0.62676,15.62641 -3.54117,21.37501 -12.44689,24.55119 -4.36683,1.5574 -24.01024,1.92799 -26.2746,0.49568 z m 24.25044,-13.90133 c 1.4081,-1.40271 1.88095,-3.8738 2.20702,-11.53374 0.48498,-11.39278 -0.59581,-18.47816 -3.09765,-20.30755 -0.98185,-0.71794 -4.39497,-1.30425 -7.59254,-1.30425 H 40 v 17.33333 c 0,9.53334 0.3375,17.67829 0.75,18.0999 1.31704,1.34613 11.64583,-0.39874 13.54204,-2.28769 z m 30.31605,13.27554 c -0.72572,-1.89119 0.18714,-55.28073 0.96676,-56.54219 0.29875,-0.48339 7.9113,-0.87889 16.91678,-0.87889 18.36467,0 18.01718,-0.1544 16.68892,7.41559 l -0.68704,3.9156 -10.99675,0.0844 -10.99676,0.0844 -0.30111,5.21677 -0.3011,5.21677 11.3011,0.28323 11.30111,0.28323 0.31105,4.90325 c 0.20589,3.24554 -0.1322,5.18435 -1,5.73469 -0.72108,0.45729 -5.92355,0.83833 -11.56105,0.84675 L 96,650.77174 v 6.5 6.5 h 11.39301 c 12.38584,0 12.60699,0.10525 12.60699,6 0,6.10462 0.31387,6 -18,6 -14.37131,0 -16.87318,-0.22713 -17.39191,-1.57892 z m 50.22524,0.58739 C 134.65,674.23487 134.725,661.07237 135,645.53021 l 0.5,-28.25847 h 4.90949 4.9095 l 5.00388,8.5 c 2.75214,4.675 6.95536,11.61713 9.34051,15.42696 2.38514,3.80983 4.33662,7.29733 4.33662,7.75 0,0.45267 0.38321,0.82304 0.85157,0.82304 0.46836,0 0.94328,-7.0875 1.05539,-15.75 0.1121,-8.6625 0.56775,-16.11636 1.01256,-16.56414 0.44482,-0.44777 2.78239,-0.67277 5.19462,-0.5 l 4.38586,0.31414 v 29 29 l -4.6859,0.30217 c -4.67052,0.30119 -4.69696,0.28479 -8.05971,-5 C 155.23944,657.1921 148,644.84079 148,643.69513 c 0,-1.82358 -1.48104,-0.0513 -1.60194,1.91697 -0.0561,0.9128 -0.16857,8.07214 -0.25,15.90964 L 146,675.77174 h -5.41667 c -2.97916,0 -5.56666,-0.44619 -5.75,-0.99153 z m 69.28252,-0.36887 c -0.80886,-0.97462 -0.94068,-7.62415 -0.46486,-23.4482 l 0.66418,-22.08778 -6.40758,-0.30181 -6.40759,-0.30181 -0.30058,-5.77275 -0.30059,-5.77276 18.30059,0.27276 18.30058,0.27275 v 5.5 5.5 l -5.61146,0.29577 -5.61145,0.29577 -0.73159,22.70027 c -0.40237,12.48514 -0.94127,23.03955 -1.19756,23.45423 -0.81003,1.31066 -9.04615,0.82252 -10.23209,-0.60644 z M 235,673.73692 c 0,-2.76147 5.77023,-22.12883 12.20499,-40.96518 l 5.29501,-15.5 h 5.43998 5.43998 l 2.12553,5.5 c 2.24803,5.81696 7.05912,20.1063 13.05818,38.78391 1.99336,6.20615 3.37112,11.94365 3.06169,12.75 -0.70744,1.84356 -8.96226,2.01623 -10.33072,0.21609 -0.52264,-0.6875 -1.73996,-3.3875 -2.70515,-6 l -1.75491,-4.75 h -8.78733 -8.78733 l -1.28513,4.75 c -1.78093,6.58251 -2.52642,7.25 -8.09723,7.25 -4.23872,0 -4.87756,-0.26651 -4.87756,-2.03482 z m 28,-22.11251 c 0,-1.63865 -4.16109,-13.16846 -5.16181,-14.30267 -0.48916,-0.55441 -0.8384,-0.138 -0.83869,1 -2.8e-4,1.0725 -0.90926,4.34095 -2.01995,7.26322 -1.11069,2.92227 -1.75891,5.73477 -1.44048,6.25 0.84674,1.37005 9.46093,1.17835 9.46093,-0.21055 z m 32.45238,22.88383 c -0.26667,-0.69492 -0.36504,-13.85742 -0.21861,-29.25 L 295.5,617.27174 h 5.5 5.5 l 0.26843,23.25 0.26843,23.25 h 7.35073 7.35073 l 0.57937,3.57027 c 0.31866,1.96365 0.16367,4.66365 -0.34441,6 -0.91054,2.39492 -1.10367,2.42973 -13.47991,2.42973 -9.19396,0 -12.68597,-0.33833 -13.04099,-1.2635 z M 0,581.27174 v -5.5 h 175 175 v 5.5 5.5 H 175 0 Z m 102,-48.90607 c -1.925,-0.72506 -4.65893,-1.7893 -6.07539,-2.36497 -3.00756,-1.22233 -10.3127,-9.11221 -16.61864,-17.94888 -9.87795,-13.84223 -19.12844,-36.25295 -22.40523,-54.28008 -0.8978,-4.93923 -1.33559,-14.84088 -1.28219,-29 0.0689,-18.2613 0.41282,-23.00637 2.28328,-31.5 5.95085,-27.02236 7.32352,-36.03775 7.46064,-49 0.23723,-22.42403 -5.06829,-37.16546 -19.25494,-53.5 -19.15953,-22.06035 -28.2926,-41.79703 -28.45888,-61.5 -0.0913,-10.82186 1.58243,-16.91501 8.42347,-30.66499 C 41.74385,171.10776 60.41044,151.77378 82.5,144.1614 c 3.10845,-1.07122 9.16141,-1.87288 16,-2.11905 9.62528,-0.3465 12.04497,-0.0781 19.36143,2.14731 4.59879,1.39881 12.02379,4.74125 16.5,7.42763 17.77797,10.6694 21.37172,11.55772 44.27268,10.94359 18.30334,-0.49085 20.57751,-1.14049 35.80834,-10.22904 5.47423,-3.26659 12.91897,-6.68875 17.74433,-8.15661 48.17419,-14.65449 78.98422,32.79115 91.7411,58.43152 6.84104,13.74998 8.51479,19.84313 8.42347,30.66499 -0.16628,19.70297 -9.29935,39.43965 -28.45888,61.5 -14.18665,16.33454 -19.49217,31.07597 -19.25494,53.5 0.13728,12.97684 1.55652,22.28283 7.47289,49 1.92153,8.67724 2.21584,12.97621 2.22497,32.5 0.0114,24.42317 -0.70205,29.71636 -6.41163,47.56634 -7.19912,22.50677 -24.48809,48.3967 -35.75777,53.54661 -2.89327,1.32214 -7.56975,2.32208 -12.30899,2.63193 -6.68484,0.43706 -8.33531,0.18276 -13.16529,-2.02848 -8.93885,-4.09234 -9.08995,-4.56351 -9.83601,-30.67036 -0.97337,-34.06137 -4.6662,-59.31122 -11.92626,-81.54604 -4.19491,-12.84743 -7.59883,-19.52475 -13.33672,-26.16209 -9.10232,-10.52916 -22.7863,-10.99434 -32.32143,-1.09875 -15.07169,15.64144 -26.2679,64.08268 -26.27284,113.67145 -0.002,19.04628 -0.76188,21.20329 -8.92776,25.33939 -4.3316,2.194 -6.7578,2.74113 -12,2.70611 -3.61388,-0.0241 -8.14569,-0.63713 -10.07069,-1.36218 z m 10.31078,-37.34393 c 1.14905,-32.88066 5.45776,-59.87721 13.2869,-83.25 9.52547,-28.43693 23.652,-44.02869 42.75982,-47.19496 23.10178,-3.82809 42.708,11.23377 54.05328,41.5247 9.06035,24.19037 13.98903,52.8941 15.26839,88.92026 0.67108,18.89716 0.76787,19.18667 5.55788,16.62313 4.45846,-2.38609 13.10198,-14.54052 18.75502,-26.37313 8.57594,-17.95064 12.00979,-33.62233 12.00412,-54.78546 -0.004,-14.95028 -1.11223,-23.79879 -5.34976,-42.71454 -6.33383,-28.27335 -6.96364,-47.86261 -2.13615,-66.44258 4.25937,-16.39344 10.4802,-28.12114 20.97867,-39.54964 11.03089,-12.00808 20.10087,-27.34179 23.10196,-39.05616 2.64536,-10.32588 1.59778,-17.28399 -4.42697,-29.40416 -11.0062,-22.14151 -25.4208,-39.67475 -38.23118,-46.50261 -5.59877,-2.98412 -7.40723,-3.41883 -15.87565,-3.81617 -11.335,-0.53183 -17.08379,1.10929 -28.40946,8.11014 -15.667,9.68439 -22.01002,11.63896 -38.06281,11.72886 -6.89854,0.0386 -11.22653,0.40231 -10.08484,0.84742 1.1,0.42886 5.15,1.79611 9,3.03835 7.94541,2.56365 25.44058,10.22999 25.47635,11.16366 0.0415,1.08235 -7.33519,5.52399 -11.39029,6.85832 -5.32145,1.75103 -17.66278,0.78709 -24.45869,-1.91038 C 163.54734,198.6373 141.41814,184.47185 129,173.94964 c -3.575,-3.02919 -8.975,-6.66832 -12,-8.08696 -4.90974,-2.30252 -6.73418,-2.57996 -17,-2.58514 -11.23809,-0.006 -11.64618,0.0734 -17.91856,3.47337 -8.05125,4.36416 -20.14663,16.32908 -27.00996,26.71863 -2.83477,4.29121 -7.72303,12.9254 -10.8628,19.18708 -5.62215,11.21232 -5.70868,11.51548 -5.70868,20 0,6.56051 0.56418,10.1653 2.36563,15.11512 3.23635,8.89248 10.48225,20.92728 17.3862,28.87696 18.32896,21.10519 24.63253,34.50617 27.94939,59.41853 1.42423,10.69718 -0.0529,28.59035 -3.84029,46.51832 -5.30149,25.09527 -6.29755,32.4538 -6.3295,46.75997 -0.0513,22.98583 3.53749,38.9161 13.07811,58.05178 5.06502,10.15894 14.52255,23.28289 17.6945,24.55415 4.84705,1.94263 4.84725,1.94201 5.50674,-16.92971 z m 46.34897,-163.29763 c -8.97984,-1.50719 -18.50128,-4.95009 -22.83871,-8.25835 -4.61468,-3.51974 -5.71316,-5.91416 -3.78117,-8.24206 1.78365,-2.14917 3.95102,-1.76051 8.90662,1.59713 8.17257,5.53731 16.65475,7.44882 33.05351,7.44882 16.39876,0 24.88094,-1.91151 33.05351,-7.44882 5.1799,-3.50961 7.47501,-3.79858 8.90772,-1.12153 1.46921,2.74525 0.38952,4.73508 -4.33155,7.98289 -10.71533,7.37151 -34.99875,11.05822 -52.96993,8.04192 z M 106.60112,299.1778 c -3.24438,-0.78503 -8.76259,-2.83712 -12.2627,-4.56022 -5.27301,-2.59589 -6.95963,-4.08542 -9.83975,-8.68991 -1.91176,-3.05635 -3.96595,-7.04176 -4.56485,-8.85647 -0.99853,-3.02555 -1.43531,-3.30128 -5.26137,-3.32142 -9.23699,-0.0486 -17.9722,-7.1256 -19.24131,-15.5887 -0.4028,-2.686 -0.21777,-6.80183 0.43239,-9.61848 C 56.48859,245.83471 57,242.28937 57,240.66407 c 0,-1.62531 0.5625,-3.14953 1.25,-3.38718 0.6875,-0.23764 9.402,-3.34871 19.36555,-6.91348 21.13389,-7.56131 30.22725,-9.16279 46.88445,-8.2571 13.68767,0.74423 22.53715,2.82105 28.9927,6.8041 l 4.99271,3.08047 16.50729,0.0588 16.5073,0.0588 5.5,-3.15167 c 8.81729,-5.05257 17.96196,-6.70146 36.5,-6.58134 17.79035,0.11527 17.93807,0.14794 46,10.17283 l 14,5.00138 0.76453,8.36106 c 0.4205,4.59858 0.50258,10.29255 0.1824,12.65326 -1.04842,7.73026 -10.04043,15.13276 -18.44693,15.18608 -3.34182,0.0212 -3.65243,0.33978 -6.87283,7.04917 -5.3732,11.19458 -13.41148,16.48434 -29.15083,19.18334 -13.83817,2.37298 -32.00225,-2.70762 -40.09494,-11.21481 -4.81169,-5.05813 -10.27079,-16.2694 -13.03916,-26.77832 -2.06705,-7.84665 -2.09509,-8.46422 -0.53298,-11.74 3.16161,-6.63001 -1.02238,-10.47772 -11.39338,-10.47772 -9.80368,0 -13.54059,3.77392 -10.36446,10.46712 1.72784,3.64114 1.70957,3.89405 -0.96541,13.36401 -5.00787,17.7289 -11.48095,26.90069 -22.64703,32.08886 -10.5932,4.922 -23.13933,6.19571 -34.33786,3.48607 z m 29.56824,-7.32188 c 5.31984,-1.64358 12.9655,-8.9801 16.16229,-15.50881 5.79183,-11.82844 5.89688,-29.65377 0.21864,-37.09832 -1.39352,-1.827 -5.12491,-4.59425 -8.29198,-6.14944 -5.69002,-2.79408 -5.97769,-2.82761 -24.25831,-2.82761 -19.91485,0 -26.79384,1.19019 -32.40945,5.60743 l -2.72462,2.14319 2.45287,2.62469 c 3.76831,4.03227 5.6812,8.58113 5.6812,13.50993 0,5.89547 -1.14089,8.65807 -5.62565,13.62216 l -3.7149,4.11195 2.20945,4.54771 c 4.48413,9.22969 9.57674,13.79645 18.1311,16.25894 4.40771,1.26882 27.2746,0.67043 32.16936,-0.84182 z m -26.50269,-22.75085 c -1.51409,-1.51408 -0.64525,-12.8562 1.21901,-15.91337 3.6373,-5.96476 12.46404,-8.08539 19.12992,-4.59597 4.30361,2.25283 7.9844,9.02391 7.9844,14.6879 0,4.61005 -1.35028,6.48811 -4.66482,6.48811 -2.7074,0 -3.88941,-2.10599 -4.20945,-7.5 -0.38164,-6.43227 -5.13358,-9.28409 -9.90322,-5.9433 -1.55087,1.08628 -2.22251,2.57759 -2.22251,4.9349 0,5.34552 -1.60165,8.5084 -4.30858,8.5084 -1.29695,0 -2.65809,-0.3 -3.02475,-0.66667 z m 141.91728,21.82458 c 5.30157,-2.35813 10.54709,-8.11668 13.97588,-15.34276 l 1.74846,-3.68486 -3.19799,-2.69094 c -8.95909,-7.53857 -9.49525,-19.91617 -1.24614,-28.76767 l 2.63584,-2.82832 -2.34939,-1.91246 c -4.43683,-3.61167 -11.94787,-5.14835 -27.65061,-5.65704 -21.99332,-0.71247 -30.67691,1.3928 -36.76356,8.91306 -8.10611,10.01536 -5.13093,34.86174 5.47487,45.72178 7.33818,7.5141 12.73194,9.10024 29.78869,8.75994 10.46433,-0.20878 13.32794,-0.61766 17.58395,-2.51073 z m -37.91728,-21.82458 c -0.36667,-0.36666 -0.66499,-3.17916 -0.66293,-6.25 0.008,-12.06174 9.79468,-19.11918 20.37972,-14.69647 4.78855,2.00078 7.89215,6.89143 8.4211,13.26999 0.49544,5.97431 -0.73113,8.34315 -4.32002,8.34315 -2.50712,0 -3.48454,-1.69275 -3.48454,-6.03473 0,-6.84478 -4.39624,-10.31678 -9.79863,-7.73862 -2.31867,1.10652 -2.74585,1.99278 -3.01533,6.25586 -0.17268,2.73169 -0.79028,5.54063 -1.37245,6.2421 -1.11885,1.34814 -5.02108,1.73457 -6.14692,0.60872 z M 0,88.271744 v -5.5 h 175 175 v 5.5 5.5 H 175 0 Z M 19.75,60.050334 C 18.09069,59.802084 17,59.015404 17,58.066844 c 0,-2.25837 5.02072,-19.04763 11.75094,-39.2951 l 5.81697,-17.5000002 5.22899,-0.30271003 5.22899,-0.30271 1.8161,4.30271003 c 4.99105,11.8248002 17.42914,51.1563502 16.95542,53.6161802 -0.24967,1.2964 -1.27046,1.57781 -4.80719,1.32523 -5.60676,-0.4004 -6.43721,-1.0919 -7.99554,-6.6577 l -1.2546,-4.481 h -9.18742 -9.18742 l -1.73372,5.5 c -0.98953,3.13917 -2.32054,5.5 -3.10083,5.5 -0.75191,0 -1.96642,0.15526 -2.6989,0.34502 -0.73249,0.18975 -2.56929,0.15986 -4.08179,-0.0664 z M 45,35.397474 c 0,-1.32171 -1.47226,-5.79614 -3.98982,-12.12573 -1.18199,-2.97172 -1.21557,-2.92459 -3.56285,5 -1.30329,4.4 -2.3871,8.1125 -2.40847,8.25 -0.0214,0.1375 2.21114,0.25 4.96114,0.25 3.57448,0 5,-0.39181 5,-1.37427 z m 50.23501,24.66657 -2.26499,-0.43533 0.26499,-29.17849 L 93.5,1.2717438 98.16661,0.97035377 c 4.50267,-0.29079 4.76892,-0.15028 7.57928,4.00000003 1.60197,2.36577 4.64361,7.9013902 6.7592,12.3013902 6.05071,12.58427 3.92963,13.78696 17.63614,-10.0000002 l 3.45731,-6 h 4.95073 4.95073 l 0.26503,29.2018702 0.26503,29.20187 -3.41517,0.64068 c -6.30874,1.18353 -7.04276,0.58233 -7.81447,-6.40043 -0.38477,-3.48155 -0.60977,-10.78866 -0.5,-16.23804 0.10977,-5.44937 -0.0771,-9.9075 -0.41534,-9.90695 -0.58491,9.5e-4 -3.14767,4.37398 -8.05574,13.7461 -1.22271,2.33481 -3.11908,4.52947 -4.21415,4.87703 -2.45198,0.77823 -3.93864,-0.95122 -9.77337,-11.36953 l -4.34182,-7.7526 -0.52261,15.5 c -0.28743,8.525 -0.87649,16.0625 -1.30901,16.75 -0.76753,1.21998 -3.86964,1.41946 -8.43337,0.5423 z m 83.11128,-0.26382 c -2.14742,-0.89019 -2.15249,-0.97535 -1.73575,-29.17488 0.22988,-15.55516 0.80041,-28.6645502 1.26784,-29.1319802 0.46744,-0.46744 2.82353,-0.70853003 5.23576,-0.53576003 L 187.5,1.2717438 v 29.5000002 29.5 l -3.5,0.21064 c -1.925,0.11585 -4.46917,-0.19112 -5.65371,-0.68216 z m 49.67354,-1.27848 c -5.87486,-3.0015 -7.85951,-7.18075 -9.17978,-19.33067 -1.22586,-11.28113 0.0325,-24.46494 2.89103,-30.2889102 2.36777,-4.82413 7.20015,-7.85297 13.85578,-8.68454003 10.91596,-1.36385997 19.81418,3.77153003 22.37342,12.91227023 1.85084,6.61055 1.13282,7.64185 -5.32049,7.64185 -5.0793,0 -5.46663,-0.17392 -6.11178,-2.74441 -0.98199,-3.91258 -2.25502,-5.11375 -6.20502,-5.85477 -7.95618,-1.49259 -10.31184,2.75625 -10.31184,18.59918 0,15.69293 2.45332,20.07345 10.40655,18.58142 3.75471,-0.70439 6.5823,-4.36941 6.5823,-8.53176 0,-1.71522 -0.63523,-2.04966 -3.89301,-2.04966 -4.1821,0 -5.10699,-1.06521 -5.10699,-5.88179 0,-4.27498 1.66699,-5.11821 10.11821,-5.11821 11.05346,0 10.88278,-0.139 10.87621,8.85699 -0.007,9.5265 -1.28955,14.27061 -5.00095,18.49767 -5.21858,5.94363 -17.77349,7.58484 -25.97364,3.39534 z m 71.28884,0.3032 c -5.9197,-2.68757 -8.23879,-7.67157 -9.42228,-20.24956 -1.16462,-12.37735 0.16927,-24.36976 3.34934,-30.1124702 3.34746,-6.04501 7.63369,-8.13569003 16.74174,-8.16607003 9.06571,-0.0302 13.66689,2.30554003 17.53138,8.89979003 C 329.90282,13.281644 330,14.119494 330,30.675344 c 0,10.77151 -0.42055,18.04646 -1.12219,19.41214 -1.88771,3.6743 -6.20126,7.77383 -9.74993,9.26617 -4.83778,2.03445 -14.75633,1.76985 -19.81921,-0.52871 z m 13.48138,-9.69396 c 4.07846,-1.09252 5.34012,-5.37952 5.35224,-18.18648 0.0151,-15.92294 -1.52343,-19.17276 -9.07655,-19.17276 -6.61542,0 -8.80882,6.83281 -7.81103,24.33267 0.47191,8.27656 0.75218,9.27651 3.18711,11.37095 2.76031,2.37431 4.42952,2.70535 8.34823,1.65562 z"
     id="path3" />
</svg>
